<svg height="512" viewBox="0 0 512 512" width="512" xmlns="http://www.w3.org/2000/svg"><g id="Filled_outline" data-name="Filled outline"><path d="m336 488h56a32 32 0 0 0 32-32v-400a32 32 0 0 0 -32-32h-104" fill="#426887"/><path d="m24 96v-40a32 32 0 0 1 32-32h232l88 88v344a32 32 0 0 1 -32 32h-288a32 32 0 0 1 -32-32z" fill="#3ba5d3"/><path d="m288 24v56a32 32 0 0 0 32 32h56z" fill="#5cc1ed"/><g fill="#96b268"><path d="m288 152h32v184h-32z"/><path d="m224 200h32v136h-32z"/><path d="m160 248h32v88h-32z"/><path d="m96 288h32v48h-32z"/></g><path d="m356 260h232v32h-232z" fill="#348ed8" transform="matrix(0 -1 1 0 196 748)"/><path d="m456 392h32l-16 32z" fill="#ffb431"/><path d="m456 128h16a16 16 0 0 1 16 16 16 16 0 0 1 -16 16h-16a0 0 0 0 1 0 0v-32a0 0 0 0 1 0 0z" fill="#e25740" transform="matrix(0 -1 1 0 328 616)"/><path d="m452 164h40v32h-40z" fill="#f1ddc1" transform="matrix(0 -1 1 0 292 652)"/><path d="m464 168h16v32h-16z" fill="#e9d6bb" transform="matrix(0 -1 1 0 288 656)"/><path d="m456 200h32v16h-32z" fill="#3289d1"/><path d="m432 56v288h-16v-288a24.027 24.027 0 0 0 -24-24h-72v-16h72a40.045 40.045 0 0 1 40 40zm-16 304h16v96a40.045 40.045 0 0 1 -40 40h-336a40.045 40.045 0 0 1 -40-40v-344h16v344a24.028 24.028 0 0 0 24 24h288a24.028 24.028 0 0 0 24-24v-336h-48a40.045 40.045 0 0 1 -40-40v-48h-224a24.028 24.028 0 0 0 -24 24v40h-16v-40a40.045 40.045 0 0 1 40-40h232a8 8 0 0 1 5.657 2.343l88 88a8 8 0 0 1 2.343 5.657v344a39.788 39.788 0 0 1 -8.022 24h16.022a24.027 24.027 0 0 0 24-24zm-59.313-256-60.687-60.687v36.687a24.027 24.027 0 0 0 24 24zm-300.687 40h16v184h16v-40a8 8 0 0 1 8-8h32a8 8 0 0 1 8 8v40h16v-80a8 8 0 0 1 8-8h32a8 8 0 0 1 8 8v80h16v-128a8 8 0 0 1 8-8h32a8 8 0 0 1 8 8v128h16v-176a8 8 0 0 1 8-8h32a8 8 0 0 1 8 8v48h-16v-40h-16v168h16v-112h16v112h16v16h-280a8 8 0 0 1 -8-8zm176 184h16v-120h-16zm-64 0h16v-72h-16zm-64 0h16v-32h-16zm48-184h-64v16h64zm-64 48h64v-16h-64zm-32 184h16v-16h-16zm48 0v-16h-16v16zm32 0v-16h-16v16zm32 0v-16h-16v16zm32 0v-16h-16v16zm16-16v16h16v-16zm48 0h-16v16h16zm16 0v16h16v-16zm32 0v16h16v-16zm-88-296h-120v16h120zm-168 0v16h32v-16zm168 48v-16h-64v16zm-168 0h88v-16h-88zm0 336h88v-16h-88zm128 0v-16h-24v16zm-128-32h128v-16h-128zm288-16h-80v16h80zm-128 16h32v-16h-32zm0 32h128v-16h-128zm280-304v248a8.261 8.261 0 0 1 -.845 3.578l-16 32a8 8 0 0 1 -14.31 0l-16-32a7.927 7.927 0 0 1 -.845-3.578v-248a24 24 0 0 1 48 0zm-20.944 256h-6.112l3.056 6.111zm4.944-184h-16v168h16zm0-48h-16v32h16zm0-24a8 8 0 0 0 -16 0v8h16z"/></g></svg>